<svg xmlns="http://www.w3.org/2000/svg" version="1.2" viewBox="0 0 801 801" width="801" height="801"><style/><path d="m786.6 364.2l-121.3-121.3v-140c0-25.4-20.5-45.9-45.9-45.9-25.3 0-45.8 20.5-45.8 45.9v48.3l-90.3-90.3c-44.6-44.6-122.2-44.5-166.7 0.1l-303.2 303.2c-17.9 17.9-17.9 46.9 0 64.8 17.9 18 47 18 64.9 0l303.1-303.1c9.9-9.9 27.3-9.9 37.1-0.1l303.2 303.2c9 9 20.7 13.4 32.4 13.4 11.8 0 23.5-4.4 32.5-13.4 17.9-17.9 17.9-46.9 0-64.8z" fill="#ffffff"/><path d="m415.9 212.9c-8.8-8.8-23-8.8-31.8 0l-266.7 266.6c-4.2 4.2-6.6 9.9-6.6 15.9v194.5c0 45.6 37 82.6 82.6 82.6h132.1v-204.5h149v204.5h132c45.7 0 82.6-37 82.6-82.6v-194.5c0-6-2.3-11.7-6.5-15.9z" fill="#ffffff"/><path d="m415.9 212.9c-8.8-8.8-23-8.8-31.8 0l-266.7 266.6c-4.2 4.2-6.6 9.9-6.6 15.9v194.5c0 45.6 37 82.6 82.6 82.6h132.1v-204.5h149v204.5h132c45.7 0 82.6-37 82.6-82.6v-194.5c0-6-2.3-11.7-6.5-15.9z" fill="#ffffff"/></svg>